# xmcd
#
# Track frame offsets:
#	150
#	11905
#	22024
#	33299
#	42186
#	53910
#	63181
#	72687
#	85504
#	97471
#	108854
#	118209
#	128373
#	140908
#	151780
#	162322
#	173384
#	183548
#	193771
#	201904
#
# Disc length: 2841 seconds
#
# Revision: 0
# Processed by: cddbd v1.5.2PL0 Copyright (c) Steve Scherf et al.
# Submitted via: EasyCDDAExtractor 4.6.9.1
#
DISCID=190b1714
DTITLE=Johnny Cash - The Complete Sun Recordings - 1955-1958 - CD 1
DYEAR=2005
DGENRE=Country
TTITLE0=Wide Open Road
TTITLE1=Hey Porter
TTITLE2=Cry Cry Cry
TTITLE3=My Two Timin' Woman
TTITLE4=Port Of Lonely Hearts
TTITLE5=I Couldn't Keep From Crying
TTITLE6=Trail to Mexico
TTITLE7=Folsom Prison Blues
TTITLE8=So Doggone Lonesome
TTITLE9=Mean Eyed Cat
TTITLE10=Luther Played The Boogie
TTITLE11=Get Rhythm
TTITLE12=I Walk The Line
TTITLE13=Train Of Love
TTITLE14=There You Go
TTITLE15=I Love You Because
TTITLE16=Goodbye Little Darlin'
TTITLE17=Straight A's In Love
TTITLE18=You're My Baby (Little Woolly Booger)
TTITLE19=My Treasure
EXTD=
EXTT0=
EXTT1=
EXTT2=
EXTT3=
EXTT4=
EXTT5=
EXTT6=
EXTT7=
EXTT8=
EXTT9=
EXTT10=
EXTT11=
EXTT12=
EXTT13=
EXTT14=
EXTT15=
EXTT16=
EXTT17=
EXTT18=
EXTT19=
PLAYORDER=
